<svg xmlns="http://www.w3.org/2000/svg" viewBox="0 0 1200 382" width="1200" height="382" role="img" aria-label="Tech stack">
  <defs>
    <linearGradient id="tbg" x1="0" y1="0" x2="1" y2="1"><stop offset="0" stop-color="#0d1117"/><stop offset="1" stop-color="#0f141d"/></linearGradient>
    <linearGradient id="tacc" x1="0" y1="0" x2="0" y2="1"><stop offset="0" stop-color="#818cf8"/><stop offset="1" stop-color="#c4b5fd"/></linearGradient>
    <style>.t{font-family:'Segoe UI','Helvetica Neue',Helvetica,Arial,sans-serif;}</style>
  </defs>
  <rect width="1200" height="382" rx="16" fill="url(#tbg)"/>
  <rect x="1" y="1" width="1198" height="380" rx="15" fill="none" stroke="#232a36"/>
  <rect x="44" y="50" width="4" height="18" rx="2" fill="url(#tacc)"/><text class="t" x="58" y="64" font-size="15" font-weight="700" fill="#adbac7">Languages</text><g transform="translate(44,104)"><rect width="90" height="34" rx="17" fill="#141a24" stroke="#2b3240"/><circle cx="18" cy="17" r="5" fill="#4b8bbe"/><text class="t" x="32" y="22" font-size="14" fill="#d7dee8">Python</text></g><g transform="translate(145,104)"><rect width="121" height="34" rx="17" fill="#141a24" stroke="#2b3240"/><circle cx="18" cy="17" r="5" fill="#3178c6"/><text class="t" x="32" y="22" font-size="14" fill="#d7dee8">TypeScript</text></g><g transform="translate(277,104)"><rect width="121" height="34" rx="17" fill="#141a24" stroke="#2b3240"/><circle cx="18" cy="17" r="5" fill="#e8d44d"/><text class="t" x="32" y="22" font-size="14" fill="#d7dee8">JavaScript</text></g><g transform="translate(409,104)"><rect width="67" height="34" rx="17" fill="#141a24" stroke="#2b3240"/><circle cx="18" cy="17" r="5" fill="#5b93c4"/><text class="t" x="32" y="22" font-size="14" fill="#d7dee8">SQL</text></g><g transform="translate(487,104)"><rect width="74" height="34" rx="17" fill="#141a24" stroke="#2b3240"/><circle cx="18" cy="17" r="5" fill="#e2a172"/><text class="t" x="32" y="22" font-size="14" fill="#d7dee8">Rust</text></g><g transform="translate(572,104)"><rect width="74" height="34" rx="17" fill="#141a24" stroke="#2b3240"/><circle cx="18" cy="17" r="5" fill="#e07b39"/><text class="t" x="32" y="22" font-size="14" fill="#d7dee8">Java</text></g><g transform="translate(657,104)"><rect width="67" height="34" rx="17" fill="#141a24" stroke="#2b3240"/><circle cx="18" cy="17" r="5" fill="#5c9fd4"/><text class="t" x="32" y="22" font-size="14" fill="#d7dee8">C++</text></g><rect x="44" y="154" width="4" height="18" rx="2" fill="url(#tacc)"/><text class="t" x="58" y="168" font-size="15" font-weight="700" fill="#adbac7">AI &amp; Automation</text><g transform="translate(44,208)"><rect width="136" height="34" rx="17" fill="#141a24" stroke="#2b3240"/><circle cx="18" cy="17" r="5" fill="#0ea5e9"/><text class="t" x="32" y="22" font-size="14" fill="#d7dee8">Azure OpenAI</text></g><g transform="translate(191,208)"><rect width="90" height="34" rx="17" fill="#141a24" stroke="#2b3240"/><circle cx="18" cy="17" r="5" fill="#10a37f"/><text class="t" x="32" y="22" font-size="14" fill="#d7dee8">GPT-4o</text></g><g transform="translate(292,208)"><rect width="236" height="34" rx="17" fill="#141a24" stroke="#2b3240"/><circle cx="18" cy="17" r="5" fill="#818cf8"/><text class="t" x="32" y="22" font-size="14" fill="#d7dee8">Multi-agent Orchestration</text></g><g transform="translate(539,208)"><rect width="67" height="34" rx="17" fill="#141a24" stroke="#2b3240"/><circle cx="18" cy="17" r="5" fill="#a78bfa"/><text class="t" x="32" y="22" font-size="14" fill="#d7dee8">MCP</text></g><g transform="translate(617,208)"><rect width="67" height="34" rx="17" fill="#141a24" stroke="#2b3240"/><circle cx="18" cy="17" r="5" fill="#c4b5fd"/><text class="t" x="32" y="22" font-size="14" fill="#d7dee8">RAG</text></g><g transform="translate(695,208)"><rect width="67" height="34" rx="17" fill="#141a24" stroke="#2b3240"/><circle cx="18" cy="17" r="5" fill="#ea4b71"/><text class="t" x="32" y="22" font-size="14" fill="#d7dee8">n8n</text></g><g transform="translate(773,208)"><rect width="105" height="34" rx="17" fill="#141a24" stroke="#2b3240"/><circle cx="18" cy="17" r="5" fill="#43b02a"/><text class="t" x="32" y="22" font-size="14" fill="#d7dee8">Selenium</text></g><rect x="44" y="258" width="4" height="18" rx="2" fill="url(#tacc)"/><text class="t" x="58" y="272" font-size="15" font-weight="700" fill="#adbac7">Web &amp; Cloud</text><g transform="translate(44,312)"><rect width="97" height="34" rx="17" fill="#141a24" stroke="#2b3240"/><circle cx="18" cy="17" r="5" fill="#e6edf3"/><text class="t" x="32" y="22" font-size="14" fill="#d7dee8">Next.js</text></g><g transform="translate(152,312)"><rect width="82" height="34" rx="17" fill="#141a24" stroke="#2b3240"/><circle cx="18" cy="17" r="5" fill="#61dafb"/><text class="t" x="32" y="22" font-size="14" fill="#d7dee8">React</text></g><g transform="translate(245,312)"><rect width="97" height="34" rx="17" fill="#141a24" stroke="#2b3240"/><circle cx="18" cy="17" r="5" fill="#3c9f3c"/><text class="t" x="32" y="22" font-size="14" fill="#d7dee8">Node.js</text></g><g transform="translate(353,312)"><rect width="82" height="34" rx="17" fill="#141a24" stroke="#2b3240"/><circle cx="18" cy="17" r="5" fill="#aeb4bf"/><text class="t" x="32" y="22" font-size="14" fill="#d7dee8">Flask</text></g><g transform="translate(446,312)"><rect width="97" height="34" rx="17" fill="#141a24" stroke="#2b3240"/><circle cx="18" cy="17" r="5" fill="#12b1a0"/><text class="t" x="32" y="22" font-size="14" fill="#d7dee8">FastAPI</text></g><g transform="translate(554,312)"><rect width="82" height="34" rx="17" fill="#141a24" stroke="#2b3240"/><circle cx="18" cy="17" r="5" fill="#3b93d6"/><text class="t" x="32" y="22" font-size="14" fill="#d7dee8">Azure</text></g><g transform="translate(647,312)"><rect width="121" height="34" rx="17" fill="#141a24" stroke="#2b3240"/><circle cx="18" cy="17" r="5" fill="#5a86d8"/><text class="t" x="32" y="22" font-size="14" fill="#d7dee8">PostgreSQL</text></g><g transform="translate(779,312)"><rect width="90" height="34" rx="17" fill="#141a24" stroke="#2b3240"/><circle cx="18" cy="17" r="5" fill="#3ba6e8"/><text class="t" x="32" y="22" font-size="14" fill="#d7dee8">Docker</text></g>
</svg>